<svg width="28" height="26" viewBox="0 0 28 26" fill="none" xmlns="http://www.w3.org/2000/svg">
<g clip-path="url(#clip0_11_8)">
<path d="M22.5227 0.410542C24.9112 0.245652 27.3535 1.97361 27.8869 4.28058C28.1904 5.59293 27.8566 6.8232 27.1737 7.98271C25.6585 10.5562 24.1707 13.1448 22.6692 15.7265C21.1616 18.3181 19.676 20.9217 18.132 23.4915C17.4029 24.7052 16.2693 25.3971 14.8505 25.6433C12.9211 25.9776 11.305 25.3964 10.0667 23.941C9.46659 23.2355 9.05157 22.3711 8.5766 21.5647C7.53639 19.8006 6.51135 18.0275 5.48025 16.2581C5.43624 16.1821 5.40437 16.0985 5.35581 16.0262C5.1722 15.7491 5.30346 15.6912 5.57357 15.6753C9.16841 15.4728 11.849 13.6861 13.786 10.7964C15.0296 8.94118 16.0758 6.95497 17.217 5.032C17.7329 4.16237 18.2238 3.27392 18.7974 2.44269C19.6836 1.15744 20.9415 0.475294 22.5227 0.410542Z" fill="white"/>
<path d="M13.654 0.486567C13.3543 1.00458 13.0887 1.46612 12.8209 1.92616C11.6472 3.93873 10.4878 5.96033 9.29209 7.9601C8.54854 9.20243 7.4499 9.95987 6.00301 10.2678C4.81485 10.5208 3.7147 10.3333 2.67221 9.79573C0.682073 8.7695 -0.357381 6.58902 0.111512 4.43265C0.544744 2.44191 1.79816 1.18001 3.73822 0.57993C4.0106 0.495603 4.31181 0.472262 4.60013 0.470756C7.52046 0.460968 10.4416 0.462474 13.3619 0.460968C13.4241 0.460968 13.4856 0.471509 13.6532 0.485815L13.654 0.486567Z" fill="white"/>
</g>
<defs>
<clipPath id="clip0_11_8">
<rect width="28" height="25.3352" fill="white" transform="translate(0 0.399994)"/>
</clipPath>
</defs>
</svg>
