<svg width="32" height="32" viewBox="0 0 32 32" fill="none" xmlns="http://www.w3.org/2000/svg">
<mask id="mask0_216_9979" style="mask-type:luminance" maskUnits="userSpaceOnUse" x="4" y="1" width="25" height="24">
<path fill-rule="evenodd" clip-rule="evenodd" d="M4.00012 1.33334H28.6627V24.464H4.00012V1.33334Z" fill="white"/>
</mask>
<g mask="url(#mask0_216_9979)">
<path fill-rule="evenodd" clip-rule="evenodd" d="M16.3295 3.33334C11.6695 3.33334 8.42147 6.98401 8.42147 10.26C8.42147 13.032 7.65214 14.3133 6.97214 15.444C6.42681 16.352 5.99614 17.0693 5.99614 18.628C6.21881 21.1427 7.87881 22.464 16.3295 22.464C24.7335 22.464 26.4455 21.084 26.6668 18.5413C26.6628 17.0693 26.2321 16.352 25.6868 15.444C25.0068 14.3133 24.2375 13.032 24.2375 10.26C24.2375 6.98401 20.9895 3.33334 16.3295 3.33334ZM16.3295 24.464C10.0948 24.464 4.46014 24.024 4.00014 18.7133C3.99614 16.516 4.66681 15.3987 5.25881 14.4147C5.85747 13.4173 6.42147 12.4773 6.42147 10.26C6.42147 5.94934 10.4028 1.33334 16.3295 1.33334C22.2561 1.33334 26.2375 5.94934 26.2375 10.26C26.2375 12.4773 26.8015 13.4173 27.4001 14.4147C27.9921 15.3987 28.6628 16.516 28.6628 18.628C28.1975 24.024 22.5641 24.464 16.3295 24.464Z" fill="#171923"/>
</g>
<path fill-rule="evenodd" clip-rule="evenodd" d="M16.2644 30H16.2617C14.7671 29.9987 13.3524 29.34 12.2791 28.144C11.9097 27.7347 11.9431 27.1013 12.3537 26.7333C12.7644 26.3627 13.3964 26.396 13.7657 26.808C14.4564 27.5773 15.3431 28 16.2631 28H16.2644C17.1884 28 18.0791 27.5773 18.7711 26.8067C19.1417 26.3973 19.7737 26.364 20.1831 26.7333C20.5937 27.1027 20.6271 27.736 20.2577 28.1453C19.1804 29.3413 17.7631 30 16.2644 30Z" fill="#171923"/>
</svg>
