<svg width="164" height="164" viewBox="0 0 164 164" fill="none" xmlns="http://www.w3.org/2000/svg">
<circle opacity="0.1" cx="82" cy="82" r="81.5" fill="#ED8936"/>
<circle cx="82" cy="82" r="81.5" fill="#ED8936"/>
<path opacity="0.1" fill-rule="evenodd" clip-rule="evenodd" d="M119.621 153.317C145.696 139.724 163.5 112.441 163.5 81C163.5 59.8079 155.412 40.505 142.153 26.01C111.809 34.2801 89.5 62.0348 89.5 95C89.5 119.068 101.392 140.359 119.621 153.317Z" fill="white"/>
<path opacity="0.1" fill-rule="evenodd" clip-rule="evenodd" d="M49.8803 6.5C60.629 15.2084 67.5 28.5151 67.5 43.4265C67.5 69.66 46.2335 90.9265 20 90.9265C13.119 90.9265 6.57975 89.4634 0.676362 86.8312C0.559401 85.0447 0.5 83.2426 0.5 81.4265C0.5 47.8207 20.8398 18.9655 49.8803 6.5Z" fill="white"/>
<circle opacity="0.08" cx="4" cy="4" r="4" transform="matrix(1 0 0 -1 26.5 55.5)" fill="white"/>
<circle opacity="0.08" cx="43" cy="43" r="42" transform="matrix(1 0 0 -1 41.5 124.5)" stroke="white" stroke-width="2"/>
<circle cx="5" cy="5" r="5" transform="matrix(1 0 0 -1 104.5 51.5)" fill="#ED8936"/>
<mask id="mask0_210_2260" style="mask-type:alpha" maskUnits="userSpaceOnUse" x="0" y="0" width="164" height="164">
<circle cx="82" cy="82" r="81.5" fill="white"/>
</mask>
<g mask="url(#mask0_210_2260)">
<path fill-rule="evenodd" clip-rule="evenodd" d="M106.5 80.5H58.5C56.3783 80.5 54.3434 81.3429 52.8431 82.8431C51.3429 84.3434 50.5 86.3783 50.5 88.5V184.5C50.5 186.622 51.3429 188.657 52.8431 190.157C54.3434 191.657 56.3783 192.5 58.5 192.5H106.5C108.622 192.5 110.657 191.657 112.157 190.157C113.657 188.657 114.5 186.622 114.5 184.5V88.5C114.5 86.3783 113.657 84.3434 112.157 82.8431C110.657 81.3429 108.622 80.5 106.5 80.5ZM58.5 72.5C54.2565 72.5 50.1869 74.1857 47.1863 77.1863C44.1857 80.1869 42.5 84.2565 42.5 88.5V184.5C42.5 188.743 44.1857 192.813 47.1863 195.814C50.1869 198.814 54.2565 200.5 58.5 200.5H106.5C110.743 200.5 114.813 198.814 117.814 195.814C120.814 192.813 122.5 188.743 122.5 184.5V88.5C122.5 84.2565 120.814 80.1869 117.814 77.1863C114.813 74.1857 110.743 72.5 106.5 72.5H58.5Z" fill="white"/>
<path fill-rule="evenodd" clip-rule="evenodd" d="M64.5 124.5C66.0913 124.5 67.6174 123.868 68.7426 122.743C69.8679 121.617 70.5 120.091 70.5 118.5C70.5 116.909 69.8679 115.383 68.7426 114.257C67.6174 113.132 66.0913 112.5 64.5 112.5C62.9087 112.5 61.3826 113.132 60.2574 114.257C59.1321 115.383 58.5 116.909 58.5 118.5C58.5 120.091 59.1321 121.617 60.2574 122.743C61.3826 123.868 62.9087 124.5 64.5 124.5Z" fill="white"/>
<path fill-rule="evenodd" clip-rule="evenodd" d="M82.5 124.5C84.0913 124.5 85.6174 123.868 86.7426 122.743C87.8679 121.617 88.5 120.091 88.5 118.5C88.5 116.909 87.8679 115.383 86.7426 114.257C85.6174 113.132 84.0913 112.5 82.5 112.5C80.9087 112.5 79.3826 113.132 78.2574 114.257C77.1321 115.383 76.5 116.909 76.5 118.5C76.5 120.091 77.1321 121.617 78.2574 122.743C79.3826 123.868 80.9087 124.5 82.5 124.5Z" fill="white"/>
<path fill-rule="evenodd" clip-rule="evenodd" d="M100.5 124.5C102.091 124.5 103.617 123.868 104.743 122.743C105.868 121.617 106.5 120.091 106.5 118.5C106.5 116.909 105.868 115.383 104.743 114.257C103.617 113.132 102.091 112.5 100.5 112.5C98.9087 112.5 97.3826 113.132 96.2574 114.257C95.1321 115.383 94.5 116.909 94.5 118.5C94.5 120.091 95.1321 121.617 96.2574 122.743C97.3826 123.868 98.9087 124.5 100.5 124.5Z" fill="white"/>
</g>
<circle cx="135.5" cy="28.5" r="26" fill="#00C968" stroke="#F7FAFC" stroke-width="4"/>
<path d="M130.098 40.6333C129.538 40.6333 129.025 40.4467 128.605 40.0267L119.318 30.74C118.478 29.9 118.478 28.5933 119.318 27.7533C120.158 26.9133 121.465 26.9133 122.305 27.7533L130.145 35.5466L148.765 16.9733C149.605 16.1333 150.912 16.1333 151.752 16.9733C152.592 17.8133 152.592 19.12 151.752 19.96L131.638 40.0267C131.172 40.4467 130.658 40.6333 130.098 40.6333Z" fill="white"/>
</svg>
