<svg width="371" height="298" viewBox="0 0 371 298" fill="none" xmlns="http://www.w3.org/2000/svg">
<g clip-path="url(#clip0_949_1140)">
<path d="M318.923 275.008H345.421V275.208H318.923V275.008Z" fill="#EEEEEE"/>
<path d="M243.521 277.379H250.476V277.179H243.521V277.379Z" fill="#EEEEEE"/>
<path d="M302.769 267.579H318.122V267.779H302.769V267.579Z" fill="#EEEEEE"/>
<path d="M27.4673 268.924H62.0219V269.124H27.4673V268.924Z" fill="#EEEEEE"/>
<path d="M69.1448 268.924H74.2112V269.124H69.1448V268.924Z" fill="#EEEEEE"/>
<path d="M90.6768 272.501H165.617V272.301H90.6768V272.501Z" fill="#EEEEEE"/>
<path d="M21.7419 0.374832C19.3341 0.374832 17.3753 2.33322 17.3753 4.74121V221.886C17.3753 224.294 19.3341 226.252 21.7419 226.252H176.221C178.628 226.252 180.586 224.294 180.586 221.886V4.74121C180.586 2.33322 178.628 0.374832 176.221 0.374832H21.7419ZM176.221 226.452H21.7419C19.2238 226.452 17.1753 224.404 17.1753 221.886V4.74121C17.1753 2.22362 19.2238 0.174835 21.7419 0.174835H176.221C178.738 0.174835 180.786 2.22362 180.786 4.74121V221.886C180.786 224.404 178.738 226.452 176.221 226.452Z" fill="#EEEEEE"/>
<path d="M194.779 0.374832C192.372 0.374832 190.414 2.33322 190.414 4.74121V221.886C190.414 224.294 192.372 226.252 194.779 226.252H349.258C351.666 226.252 353.625 224.294 353.625 221.886V4.74121C353.625 2.33322 351.666 0.374832 349.258 0.374832H194.779ZM349.258 226.452H194.779C192.262 226.452 190.214 224.404 190.214 221.886V4.74121C190.214 2.22362 192.262 0.174835 194.779 0.174835H349.258C351.776 0.174835 353.825 2.22362 353.825 4.74121V221.886C353.825 224.404 351.776 226.452 349.258 226.452Z" fill="#EEEEEE"/>
<path d="M-14.5 262.332H385.5V262.132H-14.5V262.332Z" fill="#EEEEEE"/>
<path d="M80.9648 208.012C80.2888 200.286 72.4008 197.393 63.0553 198.211C53.7094 199.029 46.4441 203.247 47.12 210.974L80.9648 208.012Z" fill="#F4F4F4"/>
<path d="M62.7465 194.68C67.0831 194.302 68.4679 190.637 68.0887 186.3C67.7095 181.963 65.7095 178.595 61.3721 178.975C57.0346 179.353 55.6499 183.017 56.0296 187.355C56.409 191.692 58.409 195.06 62.7465 194.68Z" fill="#F4F4F4"/>
<path d="M257.581 43.3893C257.789 45.7813 256.02 47.8909 253.628 48.0997C251.236 48.3093 249.127 46.5397 248.917 44.1477C248.709 41.7549 250.478 39.6469 252.87 39.4373C255.262 39.2285 257.371 40.9973 257.581 43.3893Z" fill="#F8F8F9"/>
<path d="M281.638 41.2845C281.848 43.6765 280.078 45.7853 277.686 45.9949C275.294 46.2045 273.185 44.4349 272.976 42.0429C272.766 39.6509 274.536 37.5421 276.929 37.3325C279.32 37.1237 281.429 38.8925 281.638 41.2845Z" fill="#F8F8F9"/>
<path d="M305.697 39.1797C305.906 41.5725 304.136 43.6813 301.745 43.8901C299.352 44.0997 297.244 42.3301 297.034 39.9381C296.825 37.5461 298.594 35.4373 300.986 35.2277C303.378 35.0189 305.487 36.7885 305.697 39.1797Z" fill="#F8F8F9"/>
<path d="M259.726 67.9116C259.935 70.3036 258.166 72.4124 255.774 72.622C253.382 72.8308 251.273 71.0612 251.063 68.6692C250.854 66.2772 252.624 64.1684 255.016 63.9596C257.408 63.75 259.517 65.5196 259.726 67.9116Z" fill="#F8F8F9"/>
<path d="M283.784 65.8069C283.993 68.1989 282.224 70.3076 279.832 70.5164C277.44 70.726 275.331 68.9564 275.122 66.5644C274.913 64.1724 276.682 62.0637 279.074 61.8549C281.466 61.6453 283.574 63.4149 283.784 65.8069Z" fill="#F8F8F9"/>
<path d="M307.842 63.7021C308.051 66.0941 306.282 68.2029 303.89 68.4117C301.498 68.6213 299.389 66.8517 299.18 64.4597C298.97 62.0677 300.74 59.9589 303.132 59.7501C305.524 59.5405 307.633 61.3101 307.842 63.7021Z" fill="#F8F8F9"/>
<path d="M261.871 92.4332C262.081 94.8252 260.311 96.934 257.918 97.1436C255.527 97.3532 253.417 95.5836 253.209 93.1916C253 90.7996 254.769 88.6908 257.161 88.4812C259.553 88.2724 261.661 90.0412 261.871 92.4332Z" fill="#F8F8F9"/>
<path d="M285.929 90.3284C286.138 92.7204 284.369 94.8292 281.977 95.0388C279.585 95.2476 277.476 93.478 277.267 91.0868C277.057 88.694 278.827 86.586 281.219 86.3764C283.611 86.1668 285.72 87.9364 285.929 90.3284Z" fill="#F8F8F9"/>
<path d="M309.987 88.2236C310.197 90.6156 308.427 92.7244 306.035 92.934C303.643 93.1428 301.534 91.374 301.325 88.982C301.116 86.59 302.885 84.4812 305.277 84.2716C307.669 84.062 309.778 85.8316 309.987 88.2236Z" fill="#F8F8F9"/>
<path d="M304.79 89.6356L255.361 93.9604L299.186 40.7068L254.282 44.6356C253.758 44.6812 253.295 44.2932 253.25 43.7684C253.203 43.2436 253.591 42.7812 254.117 42.7356L303.546 38.4108L259.719 91.6644L304.623 87.7364C305.148 87.69 305.61 88.078 305.656 88.6028C305.702 89.1276 305.314 89.59 304.79 89.6356Z" fill="#E9E9E8"/>
<path d="M305.548 184.697C305.384 184.226 304.963 183.876 304.466 183.843C302.198 183.692 300.283 182.843 298.766 181.32C296.79 179.336 295.627 176.315 295.439 172.729C295.404 172.061 294.844 171.54 294.175 171.536H294.174C293.434 171.531 292.844 172.156 292.884 172.896C293.112 177.103 294.534 180.7 296.952 183.128C298.841 185.024 301.278 186.136 304.053 186.378C304.102 186.382 304.164 186.388 304.236 186.393C305.156 186.468 305.85 185.57 305.548 184.697Z" fill="#F4F4F4"/>
<path d="M302.991 200.052C292.388 199.125 284.742 191.898 282.322 180.621C282.168 179.902 282.626 179.195 283.351 179.068H283.352C284.021 178.952 284.675 179.376 284.818 180.041C286.986 190.182 293.792 196.677 303.214 197.502C313.548 198.406 324.646 191.608 326.634 174.468C326.715 173.774 327.32 173.261 328.017 173.322C328.73 173.384 329.264 174.02 329.18 174.731C327.274 190.89 316.65 201.248 302.991 200.052Z" fill="#F4F4F4"/>
<path d="M282.987 169.382C282.275 169.32 281.74 168.684 281.824 167.974C283.73 151.813 294.355 141.456 308.014 142.652C319.981 143.699 328.05 152.658 329.306 166.154C329.373 166.867 328.819 167.488 328.105 167.531H328.103C327.406 167.572 326.818 167.045 326.752 166.351C325.598 154.192 318.418 146.132 307.79 145.203C297.457 144.299 286.358 151.096 284.37 168.236C284.29 168.931 283.684 169.443 282.987 169.382Z" fill="#F4F4F4"/>
<path d="M303.512 193.198C301.54 193.025 299.692 192.565 297.995 191.824C297.304 191.522 297.02 190.691 297.381 190.029C297.695 189.452 298.397 189.204 298.998 189.468C300.594 190.168 302.356 190.58 304.256 190.684C312.094 191.133 320.366 185.582 321.177 172.169C321.676 163.908 318.846 157.236 313.563 154.044C312.997 153.702 312.786 152.985 313.078 152.392C313.41 151.717 314.251 151.468 314.895 151.856C321.008 155.548 324.292 163.079 323.734 172.323C322.951 185.256 314.882 193.858 304.11 193.242C303.91 193.23 303.71 193.215 303.512 193.198Z" fill="#F4F4F4"/>
<path d="M292.113 185.219C291.493 185.642 290.647 185.444 290.272 184.796C288.003 180.872 286.943 175.813 287.271 170.38C288.019 158.008 295.437 149.6 305.509 149.434C306.257 149.422 306.861 150.047 306.818 150.793L306.817 150.796C306.78 151.462 306.238 151.984 305.573 151.998C298.103 152.144 290.598 157.792 289.828 170.536C289.529 175.482 290.475 180.048 292.503 183.54C292.837 184.112 292.661 184.844 292.113 185.219Z" fill="#F4F4F4"/>
<path d="M309.604 184.173C309.343 183.58 309.571 182.895 310.126 182.56C313.49 180.536 315.557 176.284 315.592 171.16C315.619 167.055 314.429 163.583 312.237 161.383C310.548 159.686 308.363 158.831 305.745 158.836C301.8 158.846 298.606 161.008 296.837 164.809C296.558 165.408 295.866 165.691 295.246 165.464C294.541 165.205 294.206 164.392 294.525 163.712C296.714 159.041 300.82 156.288 305.737 156.276C309.017 156.27 311.893 157.408 314.052 159.576C316.729 162.264 318.185 166.384 318.153 171.177C318.112 177.224 315.565 182.293 311.416 184.774C310.763 185.164 309.91 184.87 309.604 184.173Z" fill="#F4F4F4"/>
<path d="M300.386 174.767C299.66 175.059 298.846 174.636 298.659 173.876C298.574 173.529 298.504 173.172 298.449 172.804C297.725 168.016 300.298 163.848 304.435 163.109C306.57 162.727 308.474 163.228 309.93 164.528C310.521 165.056 310.475 165.998 309.831 166.46L309.751 166.516C309.266 166.864 308.628 166.785 308.174 166.396C307.306 165.652 306.204 165.394 304.886 165.63C301.734 166.194 300.534 169.474 300.981 172.422C301.024 172.709 301.079 172.987 301.144 173.255C301.297 173.883 300.986 174.526 300.386 174.767Z" fill="#F4F4F4"/>
<path d="M304.618 179.693L304.606 179.692C303.724 179.613 303.237 178.624 303.708 177.874L303.817 177.7C304.053 177.324 304.474 177.117 304.917 177.148C305.296 177.174 305.698 177.149 306.118 177.075C308.871 176.581 310.134 174.018 310.113 171.413C310.108 170.764 310.558 170.202 311.201 170.104C311.951 169.991 312.662 170.549 312.675 171.309C312.751 175.484 310.294 178.929 306.569 179.595C305.897 179.715 305.243 179.748 304.618 179.693Z" fill="#F4F4F4"/>
<path d="M305.185 174.966C303.822 174.847 302.806 173.928 302.437 172.617C302.224 171.857 302.861 171.121 303.648 171.19L303.941 171.216C304.397 171.256 304.773 171.568 304.925 172C305 172.211 305.142 172.392 305.409 172.415C306.024 172.469 306.133 171.586 306.149 171.409C306.159 171.282 306.186 170.792 305.976 170.504C305.77 170.22 305.629 169.896 305.66 169.547C305.76 168.408 307.198 167.951 307.924 168.834C308.5 169.536 308.797 170.52 308.7 171.632C308.517 173.726 307.038 175.128 305.185 174.966Z" fill="#F4F4F4"/>
<path d="M281.127 146.336C280.422 146.274 279.902 145.652 279.963 144.948L280.934 133.856L292.026 134.826C292.73 134.888 293.251 135.509 293.19 136.213C293.129 136.918 292.507 137.439 291.802 137.377L283.262 136.63L282.514 145.172C282.453 145.876 281.832 146.397 281.127 146.336Z" fill="#F4F4F4"/>
<path d="M333.869 150.949C333.165 150.888 332.644 150.267 332.705 149.563L333.453 141.021L324.912 140.274C324.207 140.212 323.685 139.592 323.748 138.887C323.809 138.182 324.43 137.661 325.134 137.723L336.227 138.693L335.257 149.785C335.195 150.49 334.574 151.011 333.869 150.949Z" fill="#F4F4F4"/>
<path d="M329.937 210.588L318.845 209.618C318.14 209.556 317.619 208.936 317.681 208.232C317.742 207.527 318.364 207.006 319.068 207.068L327.609 207.814L328.357 199.273C328.418 198.568 329.039 198.047 329.744 198.109C330.449 198.171 330.969 198.792 330.908 199.496L329.937 210.588Z" fill="#F4F4F4"/>
<path d="M285.736 206.722L274.643 205.751L275.614 194.658C275.675 193.954 276.297 193.433 277.001 193.495C277.706 193.556 278.226 194.176 278.166 194.881L277.418 203.424L285.959 204.171C286.664 204.232 287.185 204.853 287.123 205.558C287.062 206.262 286.441 206.783 285.736 206.722Z" fill="#F4F4F4"/>
<path d="M45.2842 182.713C44.851 182.752 44.4688 182.432 44.431 181.998L43.8345 175.177L50.6548 174.581C51.0879 174.543 51.4694 174.864 51.5076 175.297C51.5454 175.73 51.2251 176.112 50.7919 176.15L45.5404 176.609L45.9998 181.861C46.0376 182.294 45.717 182.676 45.2842 182.713Z" fill="#E3E3E2"/>
<path d="M77.7127 179.876C77.2799 179.914 76.8983 179.594 76.8599 179.161L76.4007 173.909L71.1487 174.369C70.7159 174.407 70.3334 174.086 70.2958 173.653C70.2582 173.22 70.5783 172.839 71.0119 172.8L77.8319 172.204L78.4286 179.024C78.4663 179.457 78.1463 179.839 77.7127 179.876Z" fill="#E3E3E2"/>
<path d="M81.0727 209.244L74.2519 209.841C73.8191 209.879 73.4367 209.559 73.3991 209.125C73.3615 208.692 73.6823 208.31 74.1151 208.273L79.3663 207.812L78.9071 202.561C78.8695 202.128 79.1895 201.746 79.6231 201.708C80.0559 201.671 80.4375 201.991 80.4759 202.424L81.0727 209.244Z" fill="#E3E3E2"/>
<path d="M53.8951 211.622L47.0749 212.219L46.478 205.399C46.4402 204.965 46.7605 204.583 47.1936 204.545C47.6267 204.508 48.0089 204.828 48.0467 205.261L48.5061 210.512L53.7577 210.053C54.1908 210.016 54.573 210.336 54.6108 210.769C54.6486 211.203 54.3282 211.584 53.8951 211.622Z" fill="#E3E3E2"/>
<path d="M66.0776 85.3948L66.7192 92.7348C66.8248 93.9396 65.9336 95.0012 64.7287 95.1068C63.5244 95.2116 62.4625 94.3212 62.3572 93.1164L61.715 85.7764C60.7562 85.186 60.0721 84.1756 59.9669 82.9676C59.789 80.9396 61.2897 79.1516 63.3175 78.974C65.3456 78.7972 67.1336 80.2972 67.3112 82.3252C67.4168 83.5332 66.9184 84.6468 66.0776 85.3948ZM77.1664 68.9708L51.0613 71.2548L50.5269 65.1468C49.9725 58.8092 54.6775 53.202 61.0144 52.6476C67.3512 52.094 72.9584 56.798 73.5128 63.1348L73.8232 66.6852L77.5896 66.3556L77.2792 62.806C76.5432 54.3916 69.0992 48.1452 60.6847 48.8812C52.2706 49.618 46.0247 57.0612 46.7606 65.4764L47.2982 71.6196C44.2606 72.2108 42.0982 75.0124 42.3738 78.1644L44.2387 99.4788C44.5338 102.849 47.5047 105.343 50.875 105.048L80.0992 102.491C83.4688 102.196 85.9624 99.2252 85.6672 95.8548L83.8024 74.5396C83.508 71.1692 80.536 68.6764 77.1664 68.9708Z" fill="#EEEEEE"/>
<path d="M117.005 68.6925C113.43 68.5925 110.45 65.6124 110.348 62.038C110.244 58.4356 112.936 55.4268 116.41 55.026C116.83 54.9772 117.202 55.3068 117.202 55.7292C117.202 56.0844 116.937 56.3828 116.584 56.4228C113.521 56.77 111.218 59.6677 111.86 62.9349C112.277 65.0565 113.986 66.766 116.109 67.1804C119.591 67.862 122.652 65.2012 122.652 61.838C122.652 60.7124 122.305 59.622 121.666 58.71C121.464 58.422 121.518 58.0284 121.782 57.7956C122.098 57.5156 122.59 57.5748 122.832 57.9212C123.628 59.0652 124.06 60.4292 124.06 61.838C124.06 65.6844 120.876 68.8021 117.005 68.6925ZM134.27 72.3268L132.462 71.8941C132.084 71.8037 131.85 71.4236 131.942 71.046C132.032 70.6676 132.412 70.4348 132.79 70.5252L133.571 70.7125C134.19 69.5724 134.688 68.374 135.054 67.1388L130.853 64.5612L130.929 64.0949C131.063 63.2709 131.129 62.5324 131.129 61.838C131.129 61.1436 131.063 60.4052 130.929 59.5804L130.853 59.1141L135.054 56.5372C134.688 55.302 134.19 54.1036 133.571 52.9636L128.783 54.1101L128.506 53.7268C127.622 52.498 126.545 51.4204 125.317 50.5364L124.93 50.258L126.077 45.4692C124.937 44.8493 123.738 44.3516 122.502 43.9844L119.926 48.1868L119.459 48.1109C117.965 47.8685 116.44 47.8685 114.945 48.1109L114.479 48.1868L111.902 43.9852C111.742 44.0332 111.582 44.0829 111.422 44.1349C111.065 44.2509 110.682 44.0596 110.552 43.7076C110.417 43.3372 110.609 42.9196 110.983 42.7972C111.334 42.682 111.689 42.578 112.042 42.4836L112.549 42.3484L115.188 46.6517C116.624 46.4525 117.781 46.4525 119.216 46.6517L121.855 42.3484L122.362 42.4828C124.063 42.9356 125.703 43.6172 127.238 44.5068L127.691 44.7701L126.517 49.6741C127.589 50.4957 128.545 51.4516 129.366 52.5236L134.27 51.3492L134.533 51.802C135.423 53.3364 136.104 54.9772 136.557 56.678L136.691 57.1844L132.389 59.8236C132.488 60.5404 132.536 61.2036 132.536 61.838C132.536 62.4732 132.488 63.1349 132.389 63.8525L136.691 66.4908L136.557 66.998C136.104 68.6988 135.423 70.3397 134.533 71.8741L134.27 72.3268ZM105.68 71.9349C105.458 71.6813 105.244 71.4205 105.038 71.1524L100.134 72.3268L99.872 71.8741C98.9816 70.3397 98.3 68.6988 97.848 66.998L97.7128 66.4908L102.016 63.8525C101.916 63.1349 101.868 62.4732 101.868 61.838C101.868 61.2036 101.916 60.5404 102.016 59.8236L97.7128 57.1844L97.848 56.678C98.3 54.9772 98.9816 53.3364 99.872 51.802L100.134 51.3492L105.038 52.5236C105.86 51.4516 106.816 50.4957 107.887 49.6741L106.998 45.9628C106.908 45.586 107.141 45.2068 107.518 45.1164L107.52 45.1156C107.898 45.0252 108.277 45.2581 108.367 45.6349L109.475 50.258L109.088 50.5364C107.859 51.4204 106.782 52.498 105.898 53.7268L105.622 54.1101L100.834 52.9636C100.214 54.1036 99.716 55.302 99.3496 56.5372L103.551 59.1141L103.475 59.5804C103.341 60.4052 103.276 61.1436 103.276 61.838C103.276 62.5324 103.341 63.2709 103.475 64.0949L103.551 64.5612L99.3496 67.1388C99.716 68.374 100.214 69.5724 100.834 70.7125L105.622 69.5652L105.898 69.9492C106.158 70.3108 106.437 70.662 106.731 70.9988C106.976 71.2788 106.97 71.6973 106.702 71.9549L106.676 71.9796C106.392 72.2532 105.939 72.2301 105.68 71.9349ZM121.856 81.3268L119.216 77.0252C117.787 77.222 116.618 77.222 115.188 77.0252L112.549 81.3268L112.042 81.1924C110.342 80.7404 108.701 80.0596 107.166 79.1684L106.713 78.9052L107.832 74.2349C107.922 73.8565 108.302 73.6237 108.681 73.7141C109.058 73.8053 109.291 74.1844 109.201 74.5628L108.327 78.206C109.467 78.8268 110.666 79.3244 111.902 79.6908L114.479 75.4884L114.946 75.5644C116.44 75.8084 117.965 75.8084 119.459 75.5644L119.926 75.4884L122.503 79.6908C123.738 79.3236 124.937 78.8268 126.077 78.206L124.93 73.4188L125.314 73.1428C126.36 72.3908 127.292 71.5028 128.093 70.4964C128.33 70.1972 128.754 70.1268 129.064 70.3492C129.385 70.5812 129.461 71.0364 129.214 71.3468C128.427 72.3412 127.523 73.2308 126.517 74.002L127.691 78.9052L127.238 79.1684C125.704 80.0596 124.063 80.7404 122.362 81.1924L121.856 81.3268Z" fill="#F4F4F4"/>
<path d="M69.0167 131.724C66.7079 131.659 64.7824 129.735 64.7161 127.425C64.6496 125.098 66.3887 123.155 68.6335 122.895C68.9039 122.864 69.1447 123.076 69.1447 123.349V123.35C69.1447 123.579 68.9735 123.772 68.7455 123.798C66.7663 124.022 65.2792 125.894 65.6935 128.005C65.9623 129.376 67.0671 130.48 68.4383 130.748C70.6879 131.188 72.6655 129.468 72.6655 127.296C72.6655 126.568 72.4415 125.864 72.0279 125.276C71.8975 125.089 71.9335 124.835 72.1031 124.684C72.3079 124.504 72.6255 124.542 72.7815 124.766C73.2959 125.504 73.5743 126.386 73.5743 127.296C73.5743 129.781 71.5175 131.795 69.0167 131.724ZM80.1703 134.072L79.0023 133.792C78.7583 133.734 78.6079 133.489 78.6663 133.244C78.7247 133 78.9703 132.85 79.2151 132.908L79.7191 133.029C80.1191 132.292 80.4407 131.519 80.6775 130.72L77.9631 129.055L78.0127 128.754C78.0991 128.222 78.1415 127.744 78.1415 127.296C78.1415 126.848 78.0991 126.371 78.0127 125.838L77.9631 125.536L80.6775 123.872C80.4407 123.073 80.1191 122.3 79.7191 121.563L76.6255 122.304L76.4479 122.056C75.8759 121.262 75.1807 120.566 74.3863 119.995L74.1367 119.815L74.8775 116.721C74.1407 116.321 73.3671 116 72.5687 115.762L70.9039 118.476L70.6023 118.428C69.6367 118.272 68.6519 118.272 67.6863 118.428L67.3847 118.476L65.7199 115.763C65.6167 115.793 65.5135 115.826 65.4102 115.859C65.1799 115.935 64.9315 115.811 64.8483 115.583C64.7605 115.344 64.8849 115.075 65.1268 114.995C65.354 114.921 65.5831 114.853 65.8103 114.792L66.1383 114.705L67.8431 117.485C68.7711 117.356 69.5183 117.356 70.4455 117.485L72.1503 114.705L72.4783 114.792C73.5767 115.084 74.6367 115.525 75.6279 116.1L75.9207 116.27L75.1623 119.438C75.8543 119.969 76.4719 120.586 77.0023 121.279L80.1703 120.52L80.3399 120.812C80.9159 121.804 81.3559 122.864 81.6479 123.963L81.7351 124.29L78.9551 125.994C79.0191 126.458 79.0503 126.886 79.0503 127.296C79.0503 127.706 79.0191 128.134 78.9551 128.597L81.7351 130.302L81.6479 130.629C81.3559 131.728 80.9159 132.788 80.3399 133.78L80.1703 134.072ZM61.7008 133.819C61.5574 133.656 61.4189 133.487 61.2861 133.313L58.1183 134.072L57.9486 133.78C57.3733 132.788 56.933 131.728 56.6408 130.629L56.554 130.302L59.3336 128.597C59.2692 128.134 59.2383 127.706 59.2383 127.296C59.2383 126.886 59.2692 126.458 59.3336 125.994L56.554 124.29L56.6408 123.963C56.933 122.864 57.3733 121.804 57.9486 120.812L58.1183 120.52L61.2861 121.279C61.8171 120.586 62.4343 119.969 63.1274 119.438L62.5527 117.04C62.494 116.796 62.6446 116.552 62.8883 116.493L62.8896 116.492C63.1336 116.435 63.3786 116.584 63.4371 116.828L64.1527 119.815L63.9027 119.995C63.1089 120.566 62.4127 121.262 61.8415 122.056L61.6633 122.304L58.5699 121.563C58.1692 122.3 57.848 123.073 57.6112 123.872L60.3255 125.536L60.2764 125.838C60.1896 126.371 60.1477 126.848 60.1477 127.296C60.1477 127.744 60.1896 128.222 60.2764 128.754L60.3255 129.055L57.6112 130.72C57.848 131.519 58.1692 132.292 58.5699 133.029L61.6633 132.288L61.8415 132.536C62.0096 132.77 62.1896 132.996 62.3799 133.214C62.5383 133.395 62.534 133.665 62.3608 133.832L62.344 133.848C62.1608 134.024 61.8683 134.01 61.7008 133.819ZM72.1503 139.887L70.4463 137.108C69.5223 137.235 68.7663 137.235 67.8431 137.108L66.1383 139.887L65.8111 139.8C64.712 139.508 63.652 139.068 62.6608 138.492L62.368 138.322L63.0908 135.304C63.1496 135.06 63.3952 134.909 63.6392 134.968C63.8836 135.027 64.034 135.272 63.9752 135.516L63.4112 137.87C64.148 138.272 64.9217 138.592 65.7199 138.829L67.3847 136.114L67.6863 136.164C68.6519 136.321 69.6367 136.321 70.6023 136.164L70.9039 136.114L72.5687 138.829C73.3671 138.592 74.1407 138.272 74.8775 137.87L74.1367 134.777L74.3839 134.6C75.0607 134.113 75.6631 133.54 76.1799 132.889C76.3335 132.696 76.6071 132.651 76.8071 132.795C77.0151 132.944 77.0639 133.239 76.9047 133.44C76.3959 134.081 75.8119 134.656 75.1623 135.155L75.9207 138.322L75.6279 138.492C74.6367 139.068 73.5767 139.508 72.4783 139.8L72.1503 139.887Z" fill="#E9E9E8"/>
<path d="M340.611 288.767C340.611 293.77 271.165 297.825 185.5 297.825C99.8343 297.825 30.3887 293.77 30.3887 288.767C30.3887 283.764 99.8343 279.708 185.5 279.708C271.165 279.708 340.611 283.764 340.611 288.767Z" fill="#F8F8F9"/>
<path d="M276.26 72.874H250.211L231.786 283.474H257.834C265.242 283.474 271.797 277.447 272.445 270.04L288.518 86.3084C289.167 78.9004 283.668 72.874 276.26 72.874Z" fill="#4F67FF"/>
<path d="M270.945 72.874H182.785C175.378 72.874 168.823 78.9004 168.175 86.3084L152.101 270.04C151.453 277.447 156.952 283.474 164.36 283.474H252.519C259.927 283.474 266.481 277.447 267.129 270.04L283.204 86.3084C283.852 78.9004 278.352 72.874 270.945 72.874Z" fill="#4F67FF"/>
<path d="M252.519 283.474H164.36C157.35 283.474 152.05 278.077 152.05 271.22C152.05 270.831 152.066 270.437 152.101 270.04L156.542 219.285H156.962L156.262 227.285H160.146L156.406 270.04C155.965 275.081 159.694 279.169 164.737 279.169H252.896C257.938 279.169 262.384 275.081 262.825 270.04L278.899 86.3084C279.34 81.266 275.61 77.1788 270.568 77.1788H247.325C245.954 77.1788 244.666 78.078 244.158 79.3924C242.279 84.2476 237.52 87.574 232.451 87.574H218.707C213.638 87.574 209.461 84.2476 208.431 79.3924V79.3916C208.268 78.6228 207.814 77.9956 207.19 77.6084L207.266 77.3124H206.542C206.262 77.2252 205.963 77.1788 205.652 77.1788H182.409C181.875 77.1788 181.348 77.2244 180.832 77.3124H172.427C175.126 74.5884 178.834 72.874 182.785 72.874H270.945C277.954 72.874 283.256 78.2708 283.256 85.1276C283.256 85.5164 283.238 85.9108 283.204 86.3084L267.13 270.04C266.482 277.447 259.927 283.474 252.519 283.474ZM226.509 76.9468C224.48 76.9468 222.692 78.5908 222.514 80.6196C222.337 82.6484 223.838 84.2924 225.866 84.2924C227.894 84.2924 229.682 82.6484 229.86 80.6196C230.038 78.5908 228.537 76.9468 226.509 76.9468Z" fill="#4F67FF"/>
<path d="M252.896 279.169H164.737C159.694 279.169 155.965 275.081 156.405 270.04L160.146 227.285H193.123L198.944 204.968C199.701 206.451 201.235 207.444 203.088 207.444H227.095C229.899 207.444 232.371 205.17 232.617 202.366C232.862 199.562 230.788 197.288 227.983 197.288H203.977C202.686 197.288 201.466 197.77 200.501 198.563L199.956 192.211H247.273C249.103 192.211 250.716 190.728 250.876 188.899L251.185 185.369C251.345 183.54 249.992 182.056 248.162 182.056H199.085L198.649 176.979H248.606C250.436 176.979 252.049 175.496 252.209 173.667L252.517 170.137C252.677 168.308 251.324 166.824 249.495 166.824H199.049L202.162 154.89C206.395 159.146 212.325 161.747 219.089 161.747C233.354 161.747 245.929 150.183 247.177 135.919C248.425 121.654 237.873 110.091 223.609 110.091C215.907 110.091 208.698 113.461 203.498 118.808L203.06 113.707L210.466 85.3116H205.18L207.189 77.6084C207.813 77.9956 208.268 78.6228 208.431 79.3916V79.3924C209.461 84.2476 213.638 87.574 218.707 87.574H232.451C237.52 87.574 242.279 84.2476 244.158 79.3924C244.666 78.078 245.953 77.1788 247.325 77.1788H270.568C275.61 77.1788 279.34 81.266 278.899 86.3084L262.825 270.04C262.384 275.081 257.938 279.169 252.896 279.169ZM201.083 234.596C198.12 234.596 195.508 236.998 195.249 239.961L193.609 258.701C193.35 261.664 195.541 264.067 198.505 264.067H224.199C227.162 264.067 229.774 261.664 230.033 258.701L231.673 239.961C231.933 236.998 229.741 234.596 226.777 234.596H201.083ZM268.917 79.9772C268.323 79.9772 267.798 80.4588 267.747 81.054L267.343 85.67C267.291 86.2644 267.731 86.746 268.325 86.746C268.919 86.746 269.443 86.2644 269.496 85.67L269.899 81.054C269.951 80.4588 269.512 79.9772 268.917 79.9772ZM264.497 81.302C263.902 81.302 263.377 81.7836 263.325 82.378L263.037 85.67C262.985 86.2644 263.425 86.746 264.02 86.746C264.614 86.746 265.138 86.2644 265.19 85.67L265.478 82.378C265.53 81.7836 265.09 81.302 264.497 81.302ZM260.075 82.6268C259.481 82.6268 258.957 83.1084 258.905 83.7028L258.733 85.67C258.681 86.2644 259.12 86.746 259.715 86.746C260.309 86.746 260.833 86.2644 260.885 85.67L261.057 83.7028C261.109 83.1084 260.669 82.6268 260.075 82.6268ZM206.541 77.3124H180.832C181.348 77.2244 181.875 77.1788 182.409 77.1788H205.652C205.963 77.1788 206.262 77.2252 206.541 77.3124Z" fill="#B0C8EB"/>
<path d="M248.606 176.979H186.907C185.078 176.979 183.725 175.496 183.885 173.667L184.193 170.137C184.353 168.308 185.966 166.824 187.796 166.824H249.495C251.324 166.824 252.677 168.308 252.517 170.137L252.209 173.667C252.049 175.496 250.436 176.979 248.606 176.979Z" fill="white"/>
<path d="M247.273 192.211H185.574C183.746 192.211 182.392 190.728 182.552 188.899L182.861 185.369C183.021 183.54 184.634 182.056 186.463 182.056H248.162C249.992 182.056 251.345 183.54 251.185 185.369L250.876 188.899C250.716 190.728 249.103 192.211 247.273 192.211Z" fill="white"/>
<path d="M225.865 84.2924C223.837 84.2924 222.337 82.6484 222.514 80.6196C222.692 78.5908 224.48 76.9468 226.509 76.9468C228.537 76.9468 230.037 78.5908 229.86 80.6196C229.682 82.6484 227.894 84.2924 225.865 84.2924ZM226.363 78.614C225.254 78.614 224.277 79.5116 224.181 80.6196C224.083 81.7276 224.903 82.6268 226.012 82.6268C227.12 82.6268 228.097 81.7276 228.193 80.6196C228.29 79.5116 227.471 78.614 226.363 78.614Z" fill="#688DD0"/>
<path d="M226.012 82.6268C224.903 82.6268 224.083 81.7276 224.181 80.6196C224.278 79.5116 225.254 78.614 226.363 78.614C227.471 78.614 228.29 79.5116 228.194 80.6196C228.097 81.7276 227.12 82.6268 226.012 82.6268Z" fill="#5A7FC8"/>
<path d="M259.715 86.746C259.12 86.746 258.681 86.2644 258.733 85.67L258.905 83.7028C258.957 83.1084 259.481 82.6268 260.075 82.6268C260.669 82.6268 261.109 83.1084 261.057 83.7028L260.885 85.67C260.834 86.2644 260.309 86.746 259.715 86.746Z" fill="#F2F7FC"/>
<path d="M268.325 86.746C267.731 86.746 267.291 86.2644 267.343 85.67L267.747 81.054C267.798 80.4588 268.323 79.9772 268.917 79.9772C269.512 79.9772 269.951 80.4588 269.899 81.054L269.496 85.67C269.443 86.2644 268.919 86.746 268.325 86.746Z" fill="#F2F7FC"/>
<path d="M264.02 86.746C263.426 86.746 262.986 86.2644 263.038 85.67L263.326 82.378C263.378 81.7836 263.902 81.302 264.497 81.302C265.09 81.302 265.53 81.7836 265.478 82.378L265.19 85.67C265.138 86.2644 264.614 86.746 264.02 86.746Z" fill="#F2F7FC"/>
<path d="M247.177 135.919C245.929 150.183 233.354 161.747 219.089 161.747C204.825 161.747 194.273 150.183 195.521 135.919C196.769 121.654 209.345 110.091 223.609 110.091C237.873 110.091 248.425 121.654 247.177 135.919Z" fill="white"/>
<path d="M221.437 134.916C214.649 134.916 208.919 137.498 208.429 143.109L207.884 149.338H232.466L233.012 143.109C233.502 137.498 228.226 134.916 221.437 134.916Z" fill="#4F67FF"/>
<path d="M221.662 132.352C224.812 132.352 226.265 129.797 226.54 126.647C226.816 123.496 225.81 120.943 222.659 120.943C219.509 120.943 218.056 123.496 217.781 126.647C217.505 129.797 218.511 132.352 221.662 132.352Z" fill="#4F67FF"/>
<path d="M245.79 171.72C244.114 171.72 242.699 172.358 242.578 173.744L242.443 175.282H248.515L248.65 173.744C248.77 172.358 247.467 171.72 245.79 171.72Z" fill="#4F67FF"/>
<path d="M245.847 171.087C246.624 171.087 246.983 170.456 247.051 169.677C247.12 168.899 246.871 168.269 246.093 168.269C245.314 168.269 244.955 168.899 244.887 169.677C244.819 170.456 245.068 171.087 245.847 171.087Z" fill="#4F67FF"/>
<path d="M227.095 207.444H203.088C200.284 207.444 198.21 205.17 198.455 202.366C198.7 199.562 201.172 197.288 203.977 197.288H227.983C230.788 197.288 232.862 199.562 232.617 202.366C232.371 205.17 229.899 207.444 227.095 207.444Z" fill="#4F67FF"/>
<path d="M224.199 264.067H198.505C195.542 264.067 193.35 261.664 193.61 258.701L195.249 239.961C195.508 236.998 198.12 234.596 201.083 234.596H226.778C229.741 234.596 231.933 236.998 231.673 239.961L230.034 258.701C229.774 261.664 227.162 264.067 224.199 264.067Z" fill="#4F67FF"/>
<path d="M212.088 255.65C211.029 255.65 210.245 254.791 210.338 253.732L210.903 247.28C210.163 246.691 209.725 245.757 209.818 244.696C209.974 242.912 211.546 241.467 213.329 241.467C215.112 241.467 216.431 242.912 216.275 244.696C216.182 245.757 215.581 246.691 214.738 247.28L214.174 253.732C214.081 254.791 213.148 255.65 212.088 255.65Z" fill="#B4CAEC"/>
<path d="M227.005 238.497H223.694L224.505 229.225C224.993 223.653 220.856 219.12 215.284 219.12C209.713 219.12 204.783 223.653 204.296 229.225L203.484 238.497H200.173L200.984 229.225C201.632 221.828 208.176 215.809 215.574 215.809C222.972 215.809 228.463 221.828 227.817 229.225L227.005 238.497Z" fill="#4F67FF"/>
<path d="M244.734 183.788C245.419 183.788 245.928 184.344 245.868 185.03L245.79 185.92H243.306L243.384 185.03C243.444 184.344 244.05 183.788 244.734 183.788ZM246.197 185.92L246.275 185.03C246.354 184.12 245.679 183.38 244.77 183.38C243.861 183.38 243.057 184.12 242.978 185.03L242.899 185.92C242.536 185.92 242.217 186.214 242.185 186.577L241.978 188.943C241.946 189.306 242.215 189.6 242.578 189.6H245.874C246.238 189.6 246.558 189.306 246.59 188.943L246.797 186.577C246.829 186.214 246.56 185.92 246.197 185.92Z" fill="#4F67FF"/>
<path d="M196.578 186.867L195.427 186.629C195.291 186.601 195.221 186.458 195.278 186.324L195.757 185.191C195.86 184.948 195.564 184.768 195.378 184.96L194.508 185.856C194.405 185.962 194.239 185.962 194.155 185.856L193.442 184.96C193.289 184.768 192.962 184.948 193.022 185.191L193.303 186.324C193.337 186.458 193.242 186.601 193.1 186.629L191.908 186.867C191.652 186.918 191.621 187.277 191.867 187.328L193.018 187.566C193.154 187.594 193.225 187.737 193.168 187.872L192.689 189.004C192.586 189.248 192.882 189.428 193.068 189.235L193.938 188.34C194.041 188.233 194.206 188.233 194.29 188.34L195.003 189.235C195.157 189.428 195.483 189.248 195.423 189.004L195.142 187.872C195.109 187.737 195.204 187.594 195.346 187.566L196.538 187.328C196.794 187.277 196.825 186.918 196.578 186.867Z" fill="#1D2A30"/>
<path d="M204.149 186.867L202.998 186.629C202.862 186.601 202.791 186.458 202.848 186.324L203.327 185.191C203.43 184.948 203.134 184.768 202.948 184.96L202.078 185.856C201.975 185.962 201.81 185.962 201.726 185.856L201.013 184.96C200.86 184.768 200.533 184.948 200.593 185.191L200.874 186.324C200.907 186.458 200.812 186.601 200.67 186.629L199.478 186.867C199.222 186.918 199.191 187.277 199.438 187.328L200.589 187.566C200.725 187.594 200.795 187.737 200.738 187.872L200.259 189.004C200.156 189.248 200.452 189.428 200.638 189.235L201.508 188.34C201.611 188.233 201.777 188.233 201.861 188.34L202.574 189.235C202.727 189.428 203.054 189.248 202.994 189.004L202.713 187.872C202.679 187.737 202.774 187.594 202.916 187.566L204.108 187.328C204.364 187.277 204.395 186.918 204.149 186.867Z" fill="#1D2A30"/>
<path d="M211.718 186.867L210.568 186.629C210.432 186.601 210.362 186.458 210.418 186.324L210.898 185.191C211.001 184.948 210.705 184.768 210.518 184.96L209.649 185.856C209.545 185.962 209.381 185.962 209.296 185.856L208.583 184.96C208.43 184.768 208.102 184.948 208.163 185.191L208.444 186.324C208.477 186.458 208.382 186.601 208.241 186.629L207.049 186.867C206.793 186.918 206.761 187.277 207.009 187.328L208.159 187.566C208.295 187.594 208.365 187.737 208.309 187.872L207.829 189.004C207.726 189.248 208.022 189.428 208.209 189.235L209.078 188.34C209.181 188.233 209.347 188.233 209.432 188.34L210.145 189.235C210.297 189.428 210.625 189.248 210.564 189.004L210.283 187.872C210.25 187.737 210.345 187.594 210.486 187.566L211.678 187.328C211.934 187.277 211.966 186.918 211.718 186.867Z" fill="#1D2A30"/>
<path d="M219.289 186.867L218.138 186.629C218.002 186.601 217.933 186.458 217.989 186.324L218.468 185.191C218.571 184.948 218.276 184.768 218.089 184.96L217.219 185.856C217.117 185.962 216.95 185.962 216.866 185.856L216.153 184.96C216.001 184.768 215.673 184.948 215.733 185.191L216.015 186.324C216.048 186.458 215.953 186.601 215.812 186.629L214.619 186.867C214.364 186.918 214.332 187.277 214.579 187.328L215.729 187.566C215.866 187.594 215.936 187.737 215.879 187.872L215.4 189.004C215.297 189.248 215.593 189.428 215.78 189.235L216.649 188.34C216.752 188.233 216.917 188.233 217.002 188.34L217.715 189.235C217.868 189.428 218.195 189.248 218.134 189.004L217.853 187.872C217.82 187.737 217.916 187.594 218.057 187.566L219.249 187.328C219.505 187.277 219.536 186.918 219.289 186.867Z" fill="#1D2A30"/>
<path d="M226.86 186.867L225.71 186.629C225.573 186.601 225.503 186.458 225.56 186.324L226.039 185.191C226.142 184.948 225.846 184.768 225.659 184.96L224.79 185.856C224.686 185.962 224.522 185.962 224.437 185.856L223.724 184.96C223.571 184.768 223.244 184.948 223.304 185.191L223.585 186.324C223.618 186.458 223.523 186.601 223.382 186.629L222.19 186.867C221.934 186.918 221.902 187.277 222.15 187.328L223.3 187.566C223.436 187.594 223.506 187.737 223.45 187.872L222.97 189.004C222.868 189.248 223.163 189.428 223.35 189.235L224.22 188.34C224.322 188.233 224.488 188.233 224.573 188.34L225.286 189.235C225.438 189.428 225.766 189.248 225.705 189.004L225.424 187.872C225.391 187.737 225.486 187.594 225.628 187.566L226.819 187.328C227.075 187.277 227.107 186.918 226.86 186.867Z" fill="#1D2A30"/>
<path d="M234.43 186.867L233.28 186.629C233.144 186.601 233.074 186.458 233.13 186.324L233.61 185.191C233.712 184.948 233.417 184.768 233.23 184.96L232.36 185.856C232.258 185.962 232.092 185.962 232.007 185.856L231.295 184.96C231.142 184.768 230.814 184.948 230.875 185.191L231.156 186.324C231.189 186.458 231.094 186.601 230.953 186.629L229.761 186.867C229.505 186.918 229.473 187.277 229.72 187.328L230.87 187.566C231.007 187.594 231.078 187.737 231.02 187.872L230.542 189.004C230.438 189.248 230.734 189.428 230.921 189.235L231.79 188.34C231.894 188.233 232.058 188.233 232.143 188.34L232.856 189.235C233.009 189.428 233.336 189.248 233.276 189.004L232.995 187.872C232.962 187.737 233.057 187.594 233.198 187.566L234.39 187.328C234.646 187.277 234.678 186.918 234.43 186.867Z" fill="#1D2A30"/>
<path d="M216.182 170.303H201.968C201.084 170.303 200.306 171.018 200.229 171.902C200.151 172.785 200.805 173.501 201.688 173.501H215.902C216.786 173.501 217.565 172.785 217.642 171.902C217.719 171.018 217.066 170.303 216.182 170.303Z" fill="#1D2A30"/>
<path d="M230.612 170.303H222.364C221.481 170.303 220.702 171.018 220.625 171.902C220.548 172.785 221.201 173.501 222.084 173.501H230.332C231.216 173.501 231.994 172.785 232.071 171.902C232.149 171.018 231.495 170.303 230.612 170.303Z" fill="#1D2A30"/>
<path d="M241.501 242.824C236.142 244.964 231.443 248.085 228.227 251.635C226.342 250.031 223.662 248.916 220.448 248.407L220.07 248.346L219.906 250.234L220.116 250.313C223.287 251.512 225.87 253.639 227.582 256.462L227.851 256.906L228.149 256.43C231.445 251.152 236.251 246.732 241.682 243.982L241.866 243.888L241.975 242.635L241.501 242.824Z" fill="#1D2A30"/>
<path d="M160.146 227.285H156.262L156.962 219.285H160.846L160.146 227.285Z" fill="#597EC8"/>
<path d="M193.123 227.285H160.146L160.846 219.285H189.923L196.985 192.211H199.956L200.501 198.563C199.369 199.492 198.587 200.852 198.455 202.366C198.372 203.317 198.556 204.208 198.944 204.968L193.123 227.285ZM199.085 182.056H196.571L196.135 176.979H198.649L199.085 182.056ZM199.049 166.824H195.263L194.892 162.496L198.251 149.618C199.301 151.565 200.619 153.338 202.162 154.89L199.049 166.824Z" fill="#869FD4"/>
<path d="M198.649 176.979H196.135L195.263 166.824H199.05L198.092 170.496L198.649 176.979Z" fill="#CECDCC"/>
<path d="M199.956 192.211H196.986L197.33 190.891L196.571 182.056H199.085L199.497 186.863L199.478 186.867C199.222 186.918 199.191 187.277 199.438 187.328L199.539 187.349L199.956 192.211Z" fill="#CECDCC"/>
<path d="M201.213 121.456L199.861 105.707L205.18 85.3116H210.466L203.06 113.707L203.498 118.808C202.686 119.644 201.922 120.528 201.213 121.456Z" fill="#869FD4"/>
<path d="M202.162 154.89C200.619 153.338 199.301 151.565 198.251 149.618L202.298 134.101L201.213 121.456C201.921 120.528 202.686 119.644 203.498 118.808L205.498 142.102L202.162 154.89Z" fill="#CECDCC"/>
<path d="M198.944 204.968C198.556 204.208 198.372 203.317 198.455 202.366C198.587 200.852 199.369 199.492 200.502 198.563L200.53 198.891L198.944 204.968Z" fill="#395EB4"/>
<path d="M199.539 187.349L199.438 187.328C199.191 187.277 199.222 186.918 199.478 186.867L199.497 186.863L199.539 187.349Z" fill="#182124"/>
<path d="M199.861 105.707L207.266 77.3124H114.047L106.641 105.707L109.079 134.101L101.673 162.496L104.11 190.891L96.7039 219.285H189.923L197.329 190.891L194.892 162.496L202.298 134.101L199.861 105.707Z" fill="#4F67FF"/>
<path d="M197.329 190.891H126.432C126.101 180.949 125.463 169.864 125 162.496H194.892L197.329 190.891Z" fill="#C7D9F2"/>
<path d="M202.298 134.101H184.766C187.477 131.619 189.078 128.857 189.078 123.916V118.792C189.078 118.243 188.745 117.802 188.291 117.612V115.974C188.291 115.235 187.69 114.692 187.001 114.692C186.869 114.692 186.734 114.712 186.599 114.754C185.799 115.004 184.773 115.155 183.655 115.155C182.009 115.155 180.564 114.828 179.741 114.338C179.515 114.203 179.267 114.136 179.019 114.136C178.933 114.136 178.846 114.144 178.761 114.16C178.601 114.191 178.445 114.25 178.297 114.338C177.475 114.828 176.029 115.155 174.383 115.155C174.375 115.155 174.366 115.155 174.357 115.155C173.249 115.152 172.234 115.002 171.439 114.754C171.305 114.712 171.169 114.692 171.037 114.692C170.348 114.692 169.748 115.235 169.748 115.974V116.841H133.515C131.818 116.841 130.316 117.673 129.394 118.952C128.477 117.89 127.547 116.84 126.597 115.808L125.905 116.412C125.177 111.959 124.149 110.799 124.149 110.799C124.149 110.799 120.437 109.777 116.481 109.411C116.206 108.781 116.004 107.913 116.437 107.142C115.906 106.988 115.114 106.896 114.177 106.852C114.097 106.476 114.055 106.092 114.043 105.707H199.86L207.266 77.3124L199.861 105.707L202.298 134.101ZM131.518 134.101H126.419C126.517 132.192 126.576 130.432 126.6 128.813C127.661 129.964 128.736 131.105 129.818 132.239C130.221 132.993 130.807 133.634 131.518 134.101Z" fill="#C7D9F2"/>
<path d="M199.86 105.707H114.043C114.017 104.901 114.121 104.088 114.293 103.34C116.874 102.505 118.915 100.04 119.019 96.982C119.173 92.49 117.13 85.594 112.198 84.4004L114.047 77.3125H207.266L199.86 105.707Z" fill="#E4EEF9"/>
<path d="M194.892 162.496H125C124.682 157.455 124.447 154.155 124.447 154.155H114.93H103.848C110.051 154.155 118.857 154.155 124.447 154.155C125.535 146.097 126.14 139.496 126.419 134.101H131.518C131.595 134.152 131.674 134.2 131.753 134.246C131.959 134.459 132.166 134.671 132.373 134.883L132.691 135.206C132.817 135.326 132.935 135.451 133.069 135.561C133.335 135.784 133.601 136.006 133.893 136.195C134.462 136.591 135.086 136.9 135.731 137.132C136.638 137.457 137.589 137.62 138.537 137.62C138.941 137.62 139.345 137.59 139.743 137.531C140.408 137.428 141.065 137.26 141.678 136.994C141.989 136.871 142.282 136.711 142.573 136.551C142.719 136.473 142.854 136.376 142.993 136.288C143.113 136.207 143.306 136.081 143.351 136.04L144.76 134.932H175.524C175.615 134.932 175.704 134.923 175.793 134.918C176.238 135.287 176.701 135.654 177.192 136.025C177.779 136.47 178.398 136.922 179.046 137.392C179.271 137.555 179.539 137.637 179.806 137.637C180.074 137.637 180.341 137.555 180.567 137.392C182.155 136.24 183.569 135.198 184.766 134.101H202.298L198.251 149.618L194.892 162.496Z" fill="#E4EEF9"/>
<path d="M189.923 219.285H125.605C126.113 214.278 126.471 209.968 126.579 206.956C126.726 202.827 126.638 197.081 126.432 190.891H197.33L196.986 192.211L189.923 219.285ZM109.473 219.285H102.729C104.249 214.22 105.455 209.867 106.112 206.85C106.153 206.66 106.195 206.465 106.237 206.267C106.237 206.269 106.238 206.272 106.238 206.276C106.909 203.12 107.691 198.931 108.505 194.297C108.582 193.855 108.66 193.411 108.738 192.961C108.981 198.668 109.179 204.012 109.28 208.17C109.347 210.927 109.411 214.792 109.473 219.285Z" fill="#E4EEF9"/>
<path d="M184.766 134.101H180.428C185.238 130.586 188.291 127.92 188.291 121.096V117.612C188.746 117.802 189.078 118.243 189.078 118.792V123.916C189.078 128.857 187.477 131.619 184.766 134.101ZM177.611 134.101H145.782C146.508 133.482 147.233 132.808 147.952 132.112H174.737C174.828 132.112 174.918 132.11 175.008 132.106C175.802 132.764 176.674 133.416 177.611 134.101ZM131.612 134.101H131.518C130.807 133.634 130.221 132.993 129.818 132.239C130.414 132.862 131.012 133.483 131.612 134.101Z" fill="#9CACD3"/>
<path d="M179.806 137.637C179.539 137.637 179.271 137.555 179.046 137.392C178.398 136.922 177.779 136.47 177.192 136.025C176.701 135.654 176.238 135.287 175.793 134.918C175.704 134.923 175.615 134.932 175.524 134.932H144.76L145.143 134.63C145.357 134.46 145.569 134.283 145.782 134.101H177.611C177.824 134.256 178.039 134.413 178.258 134.572C178.484 134.736 178.752 134.818 179.019 134.818C179.287 134.818 179.554 134.736 179.78 134.572C179.999 134.413 180.215 134.256 180.428 134.101H184.766C183.569 135.198 182.155 136.24 180.567 137.392C180.342 137.555 180.074 137.637 179.806 137.637ZM131.753 134.246C131.674 134.2 131.595 134.152 131.518 134.101H131.612C131.659 134.15 131.706 134.198 131.753 134.246Z" fill="#B5BCCF"/>
<path d="M174.737 132.112H133.515C130.711 132.112 128.438 129.84 128.438 127.036V121.918C128.438 119.114 130.711 116.841 133.515 116.841H174.737C177.541 116.841 179.814 119.114 179.814 121.918V127.036C179.814 129.84 177.541 132.112 174.737 132.112Z" fill="#4F67FF"/>
<path d="M183.655 115.155C182.01 115.155 180.564 114.828 179.741 114.338C179.289 114.068 178.75 114.068 178.298 114.338C177.475 114.828 176.03 115.155 174.383 115.155C173.266 115.155 172.24 115.004 171.439 114.754C170.6 114.492 169.748 115.094 169.748 115.974V121.096C169.748 128.22 173.076 130.813 178.258 134.572C178.71 134.9 179.329 134.9 179.78 134.572C184.963 130.813 188.291 128.22 188.291 121.096V115.974C188.291 115.094 187.439 114.492 186.599 114.754C185.799 115.004 184.773 115.155 183.655 115.155Z" fill="#4F67FF"/>
<path d="M179.019 134.818V114.136C179.267 114.136 179.515 114.203 179.741 114.338C180.564 114.828 182.01 115.155 183.655 115.155C184.773 115.155 185.799 115.004 186.599 114.754C186.734 114.712 186.869 114.692 187.001 114.692C187.69 114.692 188.291 115.235 188.291 115.974V121.096C188.291 128.22 184.963 130.813 179.78 134.572C179.554 134.736 179.287 134.818 179.019 134.818Z" fill="#799BD7"/>
<path d="M179.019 134.818C178.752 134.818 178.484 134.736 178.259 134.572C178.484 134.736 178.752 134.818 179.019 134.818Z" fill="#C5C9D8"/>
<path d="M174.358 115.155C173.25 115.152 172.234 115.002 171.439 114.754C172.235 115.002 173.25 115.152 174.358 115.155Z" fill="#D4E1F5"/>
<path d="M179.019 134.818C178.752 134.818 178.484 134.736 178.258 134.572C177.072 133.712 175.983 132.912 175.008 132.106C171.726 129.388 169.748 126.589 169.748 121.096V115.974C169.748 115.235 170.348 114.692 171.038 114.692C171.17 114.692 171.305 114.712 171.439 114.754C172.234 115.002 173.25 115.152 174.358 115.155C174.366 115.155 174.375 115.155 174.383 115.155C176.03 115.155 177.475 114.828 178.298 114.338C178.445 114.25 178.602 114.191 178.761 114.16C178.846 114.144 178.933 114.136 179.019 114.136V134.818Z" fill="#96B3E2"/>
<path d="M186.45 119.699C183.1 121.084 180.234 123.106 178.352 125.405C177.04 124.366 175.241 123.644 173.13 123.314L172.883 123.276V124.498L173.024 124.549C175.146 125.326 176.938 126.703 178.207 128.531L178.407 128.819L178.573 128.51C180.409 125.092 183.27 122.229 186.632 120.448L186.746 120.388V119.576L186.45 119.699Z" fill="#1D2A30"/>
<path d="M205.621 85.2972H202.084C200.122 85.2972 198.672 83.7076 198.843 81.7452L199.153 78.2092C199.325 76.2476 201.053 74.658 203.015 74.658H206.551C208.513 74.658 209.964 76.2476 209.792 78.2092L209.483 81.7452C209.311 83.7076 207.582 85.2972 205.621 85.2972Z" fill="#4F67FF"/>
<path d="M207.09 78.2012L206.323 77.3596L204.391 79.1364L202.77 77.3596L201.855 78.2012L203.477 79.978L201.545 81.754L202.313 82.5948L204.244 80.8188L205.865 82.5948L206.78 81.754L205.159 79.978L207.09 78.2012Z" fill="white"/>
<path d="M126.598 115.808C128.648 118.037 130.606 120.347 132.541 122.678C134.478 125.007 136.367 127.377 138.233 129.768C138.314 129.872 138.282 129.83 138.301 129.86L138.323 129.908L138.379 129.99L138.523 130.148C138.637 130.249 138.792 130.327 138.966 130.358C139.05 130.372 139.142 130.384 139.234 130.374L139.379 130.364L139.453 130.347C139.466 130.34 139.473 130.341 139.479 130.341C139.492 130.342 139.506 130.343 139.578 130.3L141.582 129.213C144.27 127.791 146.979 126.399 149.782 125.15L152.125 128.051C149.867 130.128 147.515 132.726 145.143 134.63L143.351 136.04C143.306 136.081 143.114 136.207 142.993 136.288C142.854 136.376 142.719 136.473 142.573 136.551C142.282 136.711 141.99 136.871 141.678 136.994C141.065 137.26 140.408 137.428 139.743 137.531C138.41 137.729 137.024 137.596 135.731 137.132C135.086 136.9 134.462 136.591 133.893 136.195C133.601 136.006 133.335 135.784 133.07 135.561C132.935 135.451 132.817 135.326 132.691 135.206L132.373 134.883C130.255 132.712 128.162 130.52 126.116 128.287C124.067 126.055 122.044 123.802 120.111 121.469L126.598 115.808Z" fill="#FBC2AA"/>
<path d="M148.692 126.918L150.557 120.928L155.466 123.374C155.466 123.374 154.751 127.744 151.177 128.503L148.692 126.918Z" fill="#FBC2AA"/>
<path d="M152.526 119.268L156.953 120.486L155.466 123.374L150.557 120.928L152.526 119.268Z" fill="#FBC2AA"/>
<path d="M100.775 117.44C100.241 119.984 99.5881 122.501 98.9041 125.01C98.2233 127.52 97.4808 130.014 96.7072 132.501L96.4192 133.434L96.2752 133.901C96.2448 134.003 96.2256 134.028 96.1976 134.096C96.1096 134.332 96.0568 134.588 96.0464 134.857C96.0328 135.39 96.1592 135.983 96.5072 136.497C96.536 136.58 96.8128 136.87 97.0272 137.104L97.692 137.826L99.0008 139.292C99.864 140.282 100.722 141.275 101.538 142.319L98.7504 145.545C97.6 144.89 96.492 144.184 95.388 143.475L93.7464 142.392L92.936 141.84C92.66 141.648 92.4376 141.52 91.9968 141.154C90.4752 139.864 89.3384 138.032 88.9216 135.996C88.7088 134.982 88.6568 133.923 88.7752 132.876C88.8064 132.625 88.8536 132.332 88.892 132.116L88.9768 131.636L89.1472 130.674C89.5952 128.108 90.0745 125.549 90.6145 123.006C91.1513 120.462 91.72 117.925 92.4072 115.417L100.775 117.44Z" fill="#FBC2AA"/>
<path d="M98.8 142.089L102.101 140.402L103.557 146.012C103.557 146.012 100.907 147.028 98.8576 145.724L98.8 142.089Z" fill="#FBC2AA"/>
<path d="M106.662 138.607L106.811 143.754L103.126 146.164L101.847 140.511L106.662 138.607Z" fill="#FBC2AA"/>
<path d="M117.453 90.9876C117.534 91.3844 117.81 91.6629 118.069 91.6101C118.328 91.5581 118.473 91.1932 118.392 90.7971C118.312 90.4003 118.036 90.1218 117.778 90.1746C117.517 90.2266 117.373 90.5915 117.453 90.9876Z" fill="#1D2A30"/>
<path d="M117.773 91.67C117.773 91.67 119.14 93.7748 120.357 94.6764C119.788 95.474 118.534 95.4164 118.534 95.4164L117.773 91.67Z" fill="#EEB39A"/>
<path d="M115.554 89.0812L115.394 89.018C115.297 88.9284 115.291 88.7788 115.381 88.682C116.273 87.7162 117.355 87.8882 117.402 87.8954C117.531 87.9178 117.618 88.0411 117.596 88.1699C117.574 88.2995 117.45 88.3851 117.323 88.3643C117.287 88.3587 116.441 88.2347 115.729 89.0052L115.554 89.0812Z" fill="#1D2A30"/>
<path d="M105.917 96.5644C106.799 100.234 107.68 106.958 104.53 109.407C104.53 109.407 105.761 113.128 114.126 113.128C123.326 113.128 118.522 110.731 118.522 110.731C113.502 109.754 113.632 105.393 114.506 102.543L105.917 96.5644Z" fill="#FBC2AA"/>
<path d="M103.55 110.087C103.002 109.068 102.399 107.9 103.647 107.535C105.021 107.133 113.846 106.388 116.438 107.142C115.642 108.559 116.99 110.3 116.99 110.3L103.55 110.087Z" fill="#1D2A30"/>
<path d="M110.857 281.748H116.629L117.203 270.132H111.431L110.857 281.748Z" fill="#FBC2AA"/>
<path d="M74.2305 280.148L80.0769 280.457L83.6289 269.012L77.7825 268.704L74.2305 280.148Z" fill="#FBC2AA"/>
<path d="M79.8975 279.995L74.3895 278.802C74.1895 278.759 73.9855 278.86 73.8999 279.046L71.9879 283.195C71.7895 283.625 72.0519 284.13 72.5167 284.222C74.4471 284.605 75.4055 284.695 77.8279 285.219C79.3175 285.542 82.6815 286.361 84.7391 286.807C86.7519 287.243 87.5063 285.276 86.7039 284.909C83.1055 283.265 81.6023 281.817 80.6279 280.468C80.4527 280.225 80.1903 280.058 79.8975 279.995Z" fill="#1D2A30"/>
<path d="M116.323 281.167H110.846C110.64 281.167 110.463 281.309 110.418 281.509L109.427 285.968C109.325 286.43 109.676 286.868 110.15 286.86C112.125 286.827 114.981 286.711 117.464 286.711C120.368 286.711 122.876 286.869 126.282 286.869C128.341 286.869 128.913 284.788 128.05 284.599C124.126 283.74 120.922 283.648 117.532 281.558C117.163 281.331 116.756 281.167 116.323 281.167Z" fill="#1D2A30"/>
<path d="M94.0799 111.103C89.7239 113.174 88.5399 125.73 88.5399 125.73L99.3159 130.709C99.3159 130.709 101.99 126.769 102.195 120.574C102.41 114.083 98.5335 108.985 94.0799 111.103Z" fill="#1D2A30"/>
<path d="M124.15 110.799C124.15 110.799 129.489 116.829 124.447 154.155C116.363 154.155 101.551 154.155 97.6176 154.155C97.4328 150.036 100.021 129.946 96.0488 110.54C96.0488 110.54 100.647 109.617 105.03 109.407C108.458 109.241 113.421 109.132 116.434 109.407C120.408 109.769 124.15 110.799 124.15 110.799Z" fill="#4F67FF"/>
<mask id="mask0_949_1140" style="mask-type:luminance" maskUnits="userSpaceOnUse" x="96" y="109" width="31" height="46">
<path d="M124.447 154.155C116.363 154.155 101.551 154.155 97.6176 154.155C97.6112 154.01 97.608 153.846 97.608 153.662C97.6072 150.929 98.276 143.98 98.2768 135.205C98.2768 127.805 97.8016 119.106 96.0488 110.54C96.0488 110.54 100.647 109.617 105.03 109.407C106.946 109.314 109.344 109.239 111.612 109.239C113.399 109.239 115.106 109.286 116.434 109.407C120.408 109.769 124.15 110.799 124.15 110.799C124.15 110.799 125.998 112.886 126.493 122.204L126.393 122.118L121.057 119.268C120.515 127.483 124.187 132.633 126.372 134.887C126.554 131.692 126.624 128.908 126.612 126.483C126.613 126.673 126.613 126.865 126.613 127.06C126.614 127.626 126.609 128.209 126.6 128.813C126.507 135.007 125.921 143.244 124.447 154.155Z" fill="white"/>
</mask>
<g mask="url(#mask0_949_1140)">
<path d="M96.0488 154.155H126.624V109.239H96.0488V154.155Z" fill="#B1C7EB"/>
</g>
<path d="M126.612 126.483C126.603 124.911 126.561 123.488 126.493 122.204L126.495 122.207C126.562 123.49 126.604 124.911 126.612 126.483Z" fill="#A4383A"/>
<path d="M126.372 134.887C124.187 132.633 120.515 127.483 121.057 119.268L126.393 122.118L126.493 122.204C126.561 123.488 126.603 124.911 126.612 126.483C126.624 128.908 126.554 131.692 126.372 134.887Z" fill="#889DD2"/>
<path d="M111.135 276.122H111.133L111.183 275.106H111.185L111.135 276.122Z" fill="#CECDCC"/>
<path d="M116.907 276.122H111.135L111.186 275.106H116.957L116.91 276.057L116.907 276.122Z" fill="#EEB39A"/>
<path d="M75.9512 274.605H75.9464L76.4321 273.042L76.4353 273.043L75.9512 274.605Z" fill="#CECDCC"/>
<path d="M81.7952 274.914L75.9512 274.605L76.4352 273.044L82.0016 274.248L81.7952 274.914Z" fill="#EEB39A"/>
<path d="M104.059 92.8349C105.348 97.6437 105.858 100.524 108.825 102.523C113.288 105.531 118.846 102.079 119.019 96.9821C119.176 92.3949 117.042 85.3021 111.882 84.3325C106.798 83.3781 102.77 88.0269 104.059 92.8349Z" fill="#FBC2AA"/>
<path d="M114.929 154.155C114.929 154.155 109.237 192.488 106.112 206.85C102.689 222.576 84.3391 274.608 84.3391 274.608L75.3599 272.664C75.3599 272.664 86.8663 230.262 89.7391 208.276C90.8599 199.696 92.2135 185.866 93.9247 174.334C95.5823 163.167 97.6175 154.155 97.6175 154.155H114.929Z" fill="#1D2A30"/>
<path d="M86.4886 271.61L84.8158 274.858L74.7126 272.671L75.5646 269.634L86.4886 271.61Z" fill="#4F67FF"/>
<path d="M84.8158 274.858L82.0014 274.248L76.435 273.044L74.7126 272.671L75.5646 269.634L86.4886 271.61L84.8158 274.858Z" fill="#B4CAEC"/>
<path d="M106.238 206.276C106.238 206.272 106.238 206.269 106.238 206.267C106.91 203.11 107.691 198.925 108.505 194.297C107.691 198.931 106.91 203.12 106.238 206.276Z" fill="#505763"/>
<path d="M106.237 206.267C105.635 196.655 105.088 180.144 107.764 172.237C108.09 178.705 108.446 186.093 108.738 192.96C108.66 193.41 108.582 193.855 108.505 194.297C107.691 198.925 106.909 203.11 106.237 206.267Z" fill="#141414"/>
<path d="M124.447 154.155C124.447 154.155 127.125 191.659 126.579 206.956C126.011 222.867 118.467 274.963 118.467 274.963H109.97C109.97 274.963 109.658 223.796 109.28 208.17C108.868 191.135 106.811 154.155 106.811 154.155H124.447Z" fill="#1D2A30"/>
<path d="M120.102 271.578L119.623 275.106H109.286L109.007 271.957L120.102 271.578Z" fill="#4F67FF"/>
<path d="M119.623 275.106H109.286L109.007 271.957L120.102 271.578L120.004 272.301L119.977 272.501L119.623 275.106Z" fill="#B4CAEC"/>
<path d="M121.019 117.825C121.019 127.89 126.375 132.033 126.375 132.033L135.081 123.523C135.081 123.523 132.121 118.423 128.049 113.741C123.021 107.958 121.019 111.352 121.019 117.825Z" fill="#1D2A30"/>
<path d="M114.332 103.325L114.306 103.292C114.306 103.292 114.334 101.492 116.458 100.883C117.914 100.466 118.494 99.4212 118.715 98.8044C118.046 100.98 116.358 102.656 114.332 103.325Z" fill="#EEB39A"/>
<path d="M116.458 83.278C118.252 81.0164 115.492 80.9084 115.492 80.9084C116.209 78.2092 112.982 79.662 112.982 79.662C111.044 76.9908 109.951 80.242 109.951 80.242C107.942 77.9788 107.572 81.6764 107.572 81.6764C105.557 78.8068 104.53 82.9452 104.53 82.9452C102.674 79.9652 101.538 83.8484 101.538 83.8484C97.7072 82.4764 99.528 86.4588 99.528 86.4588C96.256 86.5508 98.8808 89.0812 98.8808 89.0812C94.9624 89.0908 98.4176 91.3348 98.4176 91.3348C95.3056 93.3764 99.212 93.926 99.212 93.926C96.6736 97.8964 101.034 96.4236 101.034 96.4236C99.2672 100.353 103.183 98.622 103.183 98.622C102.93 102.414 105.119 101.382 106.172 100.68C106.376 101.443 106.754 102.252 107.458 102.344C108.825 102.523 109.09 99.9436 109.09 99.9436C109.09 99.9436 110.359 100.93 111.422 100.396C112.485 99.8612 112.084 98.5092 112.084 98.5092C112.084 98.5092 112.898 99.1156 113.643 98.5364C114.1 98.182 114.102 95.6356 113.521 94.7404L115.603 93.926C115.603 93.926 117.149 93.7076 116.458 91.67C115.768 89.6332 116.353 88.0252 116.353 88.0252C118.704 86.9228 116.775 85.5988 116.775 85.5988C119.494 83.8372 116.458 83.278 116.458 83.278Z" fill="#1D2A30"/>
<path d="M112.24 93.0364C112.567 94.2988 113.397 95.3844 114.265 96.03C115.57 97.0012 116.545 96.0452 116.452 94.5676C116.369 93.238 115.589 91.1308 114.149 90.7364C112.73 90.3484 111.866 91.5932 112.24 93.0364Z" fill="#FBC2AA"/>
</g>
<defs>
<clipPath id="clip0_949_1140">
<rect width="371" height="297.65" fill="white" transform="translate(0 0.174866)"/>
</clipPath>
</defs>
</svg>
